<svg width="28" height="28" viewBox="0 0 28 28" fill="none" xmlns="http://www.w3.org/2000/svg">
<path d="M26.9511 11.9733L23.9733 11.0844C23.7674 10.3656 23.4843 9.67114 23.1288 9.01328L24.5866 6.28439C24.6413 6.18138 24.6614 6.06348 24.6437 5.94819C24.6261 5.8329 24.5718 5.72636 24.4888 5.64439L22.3644 3.51105C22.2824 3.42809 22.1759 3.37378 22.0606 3.35616C21.9453 3.33855 21.8274 3.35858 21.7244 3.41328L19.0133 4.86217C18.3489 4.48942 17.6454 4.19131 16.9155 3.97328L16.0266 1.03105C15.989 0.922624 15.918 0.82892 15.8237 0.763429C15.7295 0.697938 15.6169 0.664039 15.5022 0.66661H12.4977C12.3823 0.667147 12.2701 0.704507 12.1773 0.773252C12.0846 0.841998 12.0162 0.938541 11.9822 1.04883L11.0933 3.98217C10.3573 4.19903 9.64775 4.49717 8.97773 4.87105L6.31107 3.43105C6.20806 3.37635 6.09016 3.35633 5.97487 3.37394C5.85958 3.39155 5.75304 3.44587 5.67106 3.52883L3.51106 5.6355C3.4281 5.71747 3.37379 5.82401 3.35617 5.9393C3.33856 6.0546 3.35859 6.17249 3.41329 6.2755L4.85329 8.94217C4.48 9.60936 4.18189 10.3159 3.9644 11.0488L1.02218 11.9377C0.911885 11.9718 0.815342 12.0402 0.746596 12.1329C0.677851 12.2256 0.640491 12.3378 0.639954 12.4533V15.4577C0.640491 15.5732 0.677851 15.6854 0.746596 15.7781C0.815342 15.8708 0.911885 15.9392 1.02218 15.9733L3.98218 16.8622C4.20204 17.5829 4.50011 18.2774 4.87107 18.9333L3.41329 21.7244C3.35859 21.8274 3.33856 21.9453 3.35617 22.0606C3.37379 22.1759 3.4281 22.2824 3.51106 22.3644L5.63551 24.4888C5.71748 24.5718 5.82402 24.6261 5.93931 24.6437C6.05461 24.6613 6.1725 24.6413 6.27551 24.5866L9.02218 23.1199C9.67192 23.4705 10.3573 23.7507 11.0666 23.9555L11.9555 26.9511C11.9896 27.0613 12.0579 27.1579 12.1507 27.2266C12.2434 27.2954 12.3556 27.3327 12.4711 27.3333H15.4755C15.5909 27.3327 15.7032 27.2954 15.7959 27.2266C15.8886 27.1579 15.957 27.0613 15.9911 26.9511L16.88 23.9466C17.5832 23.7407 18.2626 23.4606 18.9066 23.1111L21.6711 24.5866C21.7741 24.6413 21.892 24.6613 22.0073 24.6437C22.1226 24.6261 22.2291 24.5718 22.3111 24.4888L24.4355 22.3644C24.5185 22.2824 24.5728 22.1759 24.5904 22.0606C24.608 21.9453 24.588 21.8274 24.5333 21.7244L23.0577 18.9688C23.4109 18.3223 23.694 17.6399 23.9022 16.9333L26.8977 16.0444C27.008 16.0103 27.1046 15.942 27.1733 15.8492C27.2421 15.7565 27.2794 15.6443 27.28 15.5288V12.4977C27.2852 12.3872 27.2565 12.2777 27.1977 12.184C27.1389 12.0902 27.0529 12.0167 26.9511 11.9733ZM14 18.8888C13.033 18.8888 12.0878 18.6021 11.2838 18.0649C10.4799 17.5277 9.85324 16.7642 9.48321 15.8708C9.11318 14.9775 9.01637 13.9945 9.205 13.0462C9.39364 12.0978 9.85926 11.2267 10.543 10.543C11.2267 9.85925 12.0978 9.39363 13.0462 9.20499C13.9945 9.01636 14.9775 9.11317 15.8709 9.4832C16.7642 9.85323 17.5277 10.4798 18.0649 11.2838C18.6021 12.0878 18.8888 13.033 18.8888 13.9999C18.8888 15.2966 18.3738 16.5401 17.4569 17.4569C16.5401 18.3738 15.2966 18.8888 14 18.8888Z" fill="#1B1C1E"/>
</svg>
