<svg width="20" height="16" viewBox="0 0 20 16" fill="none" xmlns="http://www.w3.org/2000/svg">
<path d="M14.1667 14.6667H18.3334V13C18.3333 12.4804 18.1714 11.9738 17.8701 11.5505C17.5689 11.1272 17.1432 10.8083 16.6523 10.6381C16.1614 10.4679 15.6297 10.4549 15.1311 10.6009C14.6324 10.7468 14.1917 11.0445 13.87 11.4525M14.1667 14.6667L13.87 11.4525M14.1667 14.6667H5.83335M14.1667 14.6667V13C14.1667 12.4533 14.0617 11.9308 13.87 11.4525M13.87 11.4525C13.5606 10.6791 13.0265 10.0162 12.3367 9.54927C11.6469 9.08232 10.833 8.83275 10 8.83275C9.16703 8.83275 8.35315 9.08232 7.66336 9.54927C6.97356 10.0162 6.43948 10.6791 6.13002 11.4525M5.83335 14.6667H1.66669V13C1.66673 12.4804 1.82863 11.9738 2.1299 11.5505C2.43118 11.1272 2.85684 10.8083 3.34773 10.6381C3.83862 10.4679 4.37033 10.4549 4.86897 10.6009C5.3676 10.7468 5.80838 11.0445 6.13002 11.4525M5.83335 14.6667L6.13002 11.4525M5.83335 14.6667V13C5.83335 12.4533 5.93835 11.9308 6.13002 11.4525M12.5 3.83334C12.5 4.49638 12.2366 5.13226 11.7678 5.6011C11.2989 6.06994 10.6631 6.33334 10 6.33334C9.33698 6.33334 8.70109 6.06994 8.23225 5.6011C7.76341 5.13226 7.50002 4.49638 7.50002 3.83334C7.50002 3.17029 7.76341 2.53441 8.23225 2.06557C8.70109 1.59673 9.33698 1.33334 10 1.33334C10.6631 1.33334 11.2989 1.59673 11.7678 2.06557C12.2366 2.53441 12.5 3.17029 12.5 3.83334ZM17.5 6.33334C17.5 6.77536 17.3244 7.19929 17.0119 7.51185C16.6993 7.82441 16.2754 8 15.8334 8C15.3913 8 14.9674 7.82441 14.6548 7.51185C14.3423 7.19929 14.1667 6.77536 14.1667 6.33334C14.1667 5.89131 14.3423 5.46739 14.6548 5.15482C14.9674 4.84226 15.3913 4.66667 15.8334 4.66667C16.2754 4.66667 16.6993 4.84226 17.0119 5.15482C17.3244 5.46739 17.5 5.89131 17.5 6.33334ZM5.83335 6.33334C5.83335 6.77536 5.65776 7.19929 5.3452 7.51185C5.03264 7.82441 4.60871 8 4.16669 8C3.72466 8 3.30074 7.82441 2.98818 7.51185C2.67562 7.19929 2.50002 6.77536 2.50002 6.33334C2.50002 5.89131 2.67562 5.46739 2.98818 5.15482C3.30074 4.84226 3.72466 4.66667 4.16669 4.66667C4.60871 4.66667 5.03264 4.84226 5.3452 5.15482C5.65776 5.46739 5.83335 5.89131 5.83335 6.33334Z" stroke="black" stroke-width="1.66667" stroke-linecap="round" stroke-linejoin="round"/>
</svg>
