<svg width="15" height="16" viewBox="0 0 15 16" fill="none" xmlns="http://www.w3.org/2000/svg">
<path d="M5 12H1.66667C1.22464 12 0.800716 11.8314 0.488155 11.5314C0.175595 11.2313 0 10.8243 0 10.4V1.6C0 1.17565 0.175595 0.768687 0.488155 0.468629C0.800716 0.168571 1.22464 0 1.66667 0H8.33333C8.77536 0 9.19928 0.168571 9.51184 0.468629C9.8244 0.768687 10 1.17565 10 1.6V4H12.5L15 6.4V14.4C15 14.8243 14.8244 15.2313 14.5118 15.5314C14.1993 15.8314 13.7754 16 13.3333 16H6.66667C6.22464 16 5.80072 15.8314 5.48816 15.5314C5.17559 15.2313 5 14.8243 5 14.4V12ZM5 10.4V5.6C5 5.17565 5.17559 4.76869 5.48816 4.46863C5.80072 4.16857 6.22464 4 6.66667 4H8.33333V1.6H1.66667V10.4H5ZM11.81 5.6H6.66667V14.4H13.3333V7.0624L11.81 5.6Z" fill="black"/>
</svg>
