<svg width="18" height="14" viewBox="0 0 18 14" fill="none" xmlns="http://www.w3.org/2000/svg">
<path d="M17.0915 2.15C16.8181 2.0132 16.5147 1.9687 16.2188 2.02204C15.9229 2.07537 15.6477 2.22419 15.4273 2.45L13.4933 4.45V3C13.4933 2.20435 13.2089 1.44129 12.7028 0.87868C12.1967 0.316071 11.5103 0 10.7946 0H2.69865C1.98292 0 1.29651 0.316071 0.790417 0.87868C0.284321 1.44129 0 2.20435 0 3V11C0 11.7956 0.284321 12.5587 0.790417 13.1213C1.29651 13.6839 1.98292 14 2.69865 14H10.7946C11.5103 14 12.1967 13.6839 12.7028 13.1213C13.2089 12.5587 13.4933 11.7956 13.4933 11V9.55L15.4363 11.55C15.7223 11.8378 16.0939 11.9981 16.4798 12C16.6939 11.9994 16.9054 11.9483 17.1004 11.85C17.3658 11.7307 17.5931 11.5262 17.7533 11.2625C17.9135 10.9989 17.9994 10.6882 18 10.37V3.63C17.9987 3.31069 17.9115 2.99911 17.7496 2.73536C17.5877 2.47161 17.3585 2.26774 17.0915 2.15ZM11.6942 11C11.6942 11.2652 11.5994 11.5196 11.4307 11.7071C11.262 11.8946 11.0332 12 10.7946 12H2.69865C2.46008 12 2.23127 11.8946 2.06257 11.7071C1.89387 11.5196 1.7991 11.2652 1.7991 11V3C1.7991 2.73478 1.89387 2.48043 2.06257 2.29289C2.23127 2.10536 2.46008 2 2.69865 2H10.7946C11.0332 2 11.262 2.10536 11.4307 2.29289C11.5994 2.48043 11.6942 2.73478 11.6942 3V11ZM16.1919 9.6L13.6642 7L16.1919 4.4V9.6Z" fill="#585858"/>
</svg>
