<svg width="20" height="20" viewBox="0 0 20 20" fill="none" xmlns="http://www.w3.org/2000/svg">
<mask id="path-1-inside-1" fill="white">
<rect x="2" y="2" width="16" height="16" rx="1"/>
</mask>
<rect x="2" y="2" width="16" height="16" rx="1" stroke="black" stroke-width="4" mask="url(#path-1-inside-1)"/>
<path d="M4.92672 13.5894C4.80858 13.4146 4.80995 13.1852 4.93017 13.0118L6.55863 10.6633C6.98523 10.0481 7.71971 9.72263 8.46202 9.8199L9.64903 9.97545L10.6931 10.1123C11.5085 10.2191 12.3062 9.8159 12.7037 9.09596L14.2134 6.36186C14.3898 6.04244 14.8414 6.02215 15.0457 6.32446C15.1485 6.47654 15.1573 6.67339 15.0686 6.83407L13.3179 10.0047C12.9204 10.7246 12.1226 11.1278 11.3072 11.021L10.2632 10.8842L9.07617 10.7286C8.33386 10.6314 7.59938 10.9568 7.17278 11.572L5.77044 13.5944C5.56562 13.8898 5.12799 13.8872 4.92672 13.5894Z" fill="black"/>
</svg>
