<svg width="31" height="31" viewBox="0 0 31 31" fill="none" xmlns="http://www.w3.org/2000/svg">
<path fill-rule="evenodd" clip-rule="evenodd" d="M15.5 31C24.0604 31 31 24.0604 31 15.5C31 6.93959 24.0604 0 15.5 0C6.93959 0 0 6.93959 0 15.5C0 24.0604 6.93959 31 15.5 31ZM16 11.5C16 11.2239 15.7761 11 15.5 11C15.2239 11 15 11.2239 15 11.5V19.5C15 19.7761 15.2239 20 15.5 20C15.7761 20 16 19.7761 16 19.5V11.5ZM10.5 13C10.7761 13 11 13.2239 11 13.5V17.5C11 17.7761 10.7761 18 10.5 18C10.2239 18 10 17.7761 10 17.5V13.5C10 13.2239 10.2239 13 10.5 13ZM21 13.5C21 13.2239 20.7761 13 20.5 13C20.2239 13 20 13.2239 20 13.5V17.5C20 17.7761 20.2239 18 20.5 18C20.7761 18 21 17.7761 21 17.5V13.5ZM25.5 14C25.7761 14 26 14.2239 26 14.5V16.5C26 16.7761 25.7761 17 25.5 17C25.2239 17 25 16.7761 25 16.5V14.5C25 14.2239 25.2239 14 25.5 14ZM6 14.5C6 14.2239 5.77614 14 5.5 14C5.22386 14 5 14.2239 5 14.5V16.5C5 16.7761 5.22386 17 5.5 17C5.77614 17 6 16.7761 6 16.5V14.5ZM16.366 24.5L16.799 25.25C17.1839 25.9167 16.7028 26.75 15.933 26.75H15.067C14.2972 26.75 13.8161 25.9167 14.201 25.25L14.634 24.5C15.0189 23.8333 15.9811 23.8333 16.366 24.5ZM14.634 6.5C15.0189 7.16667 15.9811 7.16667 16.366 6.5L16.799 5.75C17.1839 5.08333 16.7028 4.25 15.933 4.25H15.067C14.2972 4.25 13.8161 5.08333 14.201 5.75L14.634 6.5Z" fill="#3D3C4E"/>
</svg>
