<svg width="28" height="29" viewBox="0 0 28 29" fill="none" xmlns="http://www.w3.org/2000/svg">
<path d="M28 14.5889C28 6.85474 21.7289 0.588867 14 0.588867C6.26588 0.588867 0 6.85474 0 14.5889C0 21.5749 5.11788 27.3674 11.8125 28.4165V18.6366H8.25738V14.5897H11.8125V11.5036C11.8125 7.99574 13.8994 6.05849 17.0984 6.05849C18.6305 6.05849 20.2344 6.33149 20.2344 6.33149V9.77637H18.466C16.73 9.77637 16.1875 10.857 16.1875 11.9639V14.5889H20.0699L19.446 18.6357H16.1875V28.4156C22.8769 27.3665 28 21.574 28 14.588V14.5889Z" fill="#1877F2"/>
</svg>
