<svg width="28" height="29" viewBox="0 0 28 29" fill="none" xmlns="http://www.w3.org/2000/svg">
<g clip-path="url(#clip0)">
<path d="M27.7279 11.4687H26.6002V11.4106H14.0001V17.0107H21.9122C20.7579 20.2706 17.6562 22.6107 14.0001 22.6107C9.36116 22.6107 5.60004 18.8496 5.60004 14.2107C5.60004 9.57173 9.36116 5.81061 14.0001 5.81061C16.1414 5.81061 18.0895 6.61841 19.5728 7.93792L23.5328 3.978C21.0323 1.64768 17.6877 0.210571 14.0001 0.210571C6.26854 0.210571 0 6.47911 0 14.2107C0 21.9422 6.26854 28.2108 14.0001 28.2108C21.7316 28.2108 28.0002 21.9422 28.0002 14.2107C28.0002 13.272 27.9036 12.3557 27.7279 11.4687Z" fill="#FFC107"/>
<path d="M1.61426 7.69359L6.21399 11.0669C7.4586 7.98549 10.4728 5.80988 14.0001 5.80988C16.1415 5.80988 18.0896 6.61768 19.5729 7.93719L23.5328 3.97726C21.0324 1.64695 17.6878 0.209839 14.0001 0.209839C8.6227 0.209839 3.95927 3.24576 1.61426 7.69359Z" fill="#FF3D00"/>
<path d="M14 28.21C17.6162 28.21 20.902 26.8261 23.3863 24.5756L19.0533 20.909C17.6005 22.0138 15.8252 22.6114 14 22.61C10.3585 22.61 7.26661 20.2881 6.10181 17.0477L1.53638 20.5653C3.85339 25.0992 8.55882 28.21 14 28.21Z" fill="#4CAF50"/>
<path d="M27.7273 11.468H26.5996V11.4099H13.9995V17.0099H21.9117C21.3595 18.5614 20.3649 19.9172 19.0507 20.9097L19.0528 20.9083L23.3859 24.5749C23.0793 24.8535 27.9996 21.21 27.9996 14.2099C27.9996 13.2712 27.903 12.3549 27.7273 11.468Z" fill="#1976D2"/>
</g>
<defs>
<clipPath id="clip0">
<rect width="28" height="28" fill="white" transform="translate(0 0.209961)"/>
</clipPath>
</defs>
</svg>
