<svg width="24" height="28" viewBox="0 0 24 28" fill="none" xmlns="http://www.w3.org/2000/svg">
<path d="M23.2982 21.8205C22.8747 22.7988 22.3735 23.6992 21.7928 24.5271C21.0012 25.6557 20.3531 26.437 19.8536 26.8708C19.0793 27.5828 18.2497 27.9476 17.3613 27.9682C16.7236 27.9682 15.9545 27.7868 15.0592 27.4186C14.161 27.0522 13.3355 26.8707 12.5808 26.8707C11.7892 26.8707 10.9402 27.0522 10.0322 27.4186C9.12273 27.7867 8.39008 27.9786 7.82992 27.9976C6.978 28.0339 6.12886 27.6588 5.28132 26.8707C4.74035 26.3989 4.0637 25.59 3.25307 24.4441C2.38337 23.2205 1.66839 21.8015 1.10817 20.1837C0.508301 18.4364 0.20752 16.7443 0.20752 15.1062C0.20752 13.2297 0.612973 11.6114 1.42514 10.2551C2.06345 9.16573 2.91258 8.30643 3.97527 7.67556C5.03796 7.04468 6.18634 6.72323 7.42293 6.70266C8.09958 6.70266 8.98694 6.91195 10.0896 7.32331C11.1892 7.73604 11.8952 7.94538 12.2048 7.94538C12.4362 7.94538 13.2205 7.70066 14.5501 7.21274C15.8075 6.76025 16.8687 6.57289 17.738 6.64672C20.0938 6.83687 21.8636 7.76546 23.0406 9.43852C20.9338 10.7151 19.8916 12.503 19.9123 14.7967C19.9313 16.5833 20.5794 18.0701 21.8532 19.2505C22.4304 19.7984 23.0751 20.2219 23.7924 20.5225C23.6368 20.9736 23.4727 21.4057 23.2981 21.8205H23.2982ZM17.8954 0.560164C17.8954 1.96049 17.3838 3.26796 16.3641 4.47814C15.1335 5.9168 13.6451 6.74811 12.031 6.61697C12.0093 6.44092 11.9985 6.26371 11.9985 6.08634C11.9985 4.74201 12.5837 3.30334 13.6229 2.12707C14.1418 1.53152 14.8016 1.03627 15.6019 0.641211C16.4004 0.252055 17.1557 0.0368047 17.866 0C17.8867 0.187195 17.8954 0.374391 17.8954 0.560109L17.8954 0.560164Z" fill="black"/>
</svg>
