<svg width="48" height="48" viewBox="0 0 48 48" fill="none" xmlns="http://www.w3.org/2000/svg">
<rect width="48" height="48" rx="4" fill="url(#paint0_linear)"/>
<rect x="5.29999" y="7.69995" width="37.4" height="35" rx="1.5" stroke="white"/>
<path d="M28.8 7.20005C28.8 5.87457 26.651 4.80005 24 4.80005C21.349 4.80005 19.2 5.87457 19.2 7.20005" stroke="white"/>
<path d="M9.60001 18C9.60001 17.3373 10.1373 16.8 10.8 16.8C16.2432 16.8 19.7569 16.8 25.2 16.8C25.8627 16.8 26.4 17.3373 26.4 18C26.4 18.6628 25.8627 19.2 25.2 19.2H10.8C10.1373 19.2 9.60001 18.6628 9.60001 18Z" fill="white"/>
<path d="M9.60001 13.2C9.60001 12.5373 10.1373 12 10.8 12C16.2432 12 19.7569 12 25.2 12C25.8627 12 26.4 12.5373 26.4 13.2C26.4 13.8627 25.8627 14.4 25.2 14.4H10.8C10.1373 14.4 9.60001 13.8627 9.60001 13.2Z" fill="white"/>
<path d="M28.8 16.8C28.8 14.149 30.949 12 33.6 12C36.251 12 38.4 14.149 38.4 16.8C38.4 19.451 36.251 21.6 33.6 21.6C30.949 21.6 28.8 19.451 28.8 16.8Z" fill="white"/>
<path d="M9.60001 22.8C9.60001 22.1372 10.1389 21.6 10.8016 21.6C17.1763 21.6 21.2237 21.6 27.5984 21.6C28.2611 21.6 28.8 22.1372 28.8 22.8C28.8 23.4627 28.2628 24 27.6 24H10.8C10.1373 24 9.60001 23.4627 9.60001 22.8Z" fill="white"/>
<path d="M9.60001 27.6C9.60001 26.9373 10.1396 26.4 10.8024 26.4C19.98 26.4 25.62 26.4 34.7976 26.4C35.4604 26.4 36 26.9373 36 27.6C36 28.2628 35.4627 28.8 34.8 28.8H10.8C10.1373 28.8 9.60001 28.2628 9.60001 27.6Z" fill="white"/>
<path d="M9.60001 32.4C9.60001 31.7372 10.139 31.2 10.8018 31.2C20.9154 31.2 27.0846 31.2 37.1983 31.2C37.861 31.2 38.4 31.7372 38.4 32.4C38.4 33.0627 37.8627 33.5999 37.2 33.5999H10.8C10.1373 33.5999 9.60001 33.0627 9.60001 32.4Z" fill="white"/>
<path d="M9.60001 37.2C9.60001 36.5373 10.139 36 10.8018 36C20.9154 36 27.0846 36 37.1983 36C37.861 36 38.4 36.5373 38.4 37.2C38.4 37.8627 37.8627 38.4 37.2 38.4H10.8C10.1373 38.4 9.60001 37.8627 9.60001 37.2Z" fill="white"/>
<defs>
<linearGradient id="paint0_linear" x1="24" y1="0" x2="24" y2="48" gradientUnits="userSpaceOnUse">
<stop stop-color="#B3E0FE"/>
<stop offset="0.614583" stop-color="#119EFF"/>
</linearGradient>
</defs>
</svg>
