<svg width="7" height="12" viewBox="0 0 7 12" fill="none" xmlns="http://www.w3.org/2000/svg">
<path d="M0.309992 0.710022C0.217288 0.802536 0.143741 0.912424 0.0935593 1.0334C0.0433778 1.15437 0.0175476 1.28405 0.0175476 1.41502C0.0175476 1.54599 0.0433778 1.67567 0.0935593 1.79665C0.143741 1.91762 0.217288 2.02751 0.309992 2.12002L4.18999 6.00002L0.309992 9.88002C0.123014 10.067 0.017971 10.3206 0.017971 10.585C0.017971 10.8494 0.123014 11.103 0.309992 11.29C0.496969 11.477 0.750565 11.582 1.01499 11.582C1.27942 11.582 1.53301 11.477 1.71999 11.29L6.30999 6.70002C6.4027 6.60751 6.47624 6.49762 6.52642 6.37665C6.57661 6.25567 6.60244 6.12599 6.60244 5.99502C6.60244 5.86405 6.57661 5.73437 6.52642 5.6134C6.47624 5.49242 6.4027 5.38254 6.30999 5.29002L1.71999 0.700022C1.33999 0.320022 0.699992 0.320022 0.309992 0.710022Z" fill="url(#paint0_linear)"/>
<defs>
<linearGradient id="paint0_linear" x1="3.30999" y1="0.41626" x2="3.30999" y2="11.582" gradientUnits="userSpaceOnUse">
<stop stop-color="#B3E0FE"/>
<stop offset="0.614583" stop-color="#119EFF"/>
</linearGradient>
</defs>
</svg>
