<svg width="646" height="605" viewBox="0 0 646 605" fill="none" xmlns="http://www.w3.org/2000/svg">
<path d="M272.764 192.054C368.919 159.846 646 0 646 0C646 0 471.745 271.463 421.117 223.727C370.488 175.991 250.394 255.319 222.921 362.293C195.448 469.268 0 605 0 605C51.3447 488.431 176.61 224.261 272.764 192.054Z" fill="#5029A1" fill-opacity="0.1"/>
<path d="M254 353.5C294.5 236.5 446.5 202.5 412.5 295.5C378.5 388.5 636.5 227 540.5 388.5C444.5 550 275 645 311 518.5C347 392 213.5 470.5 254 353.5Z" fill="#5029A1" fill-opacity="0.1"/>
</svg>
